<mxfile host="app.diagrams.net" modified="2022-04-26T07:21:02.078Z" agent="5.0 (Windows NT 10.0; Win64; x64) AppleWebKit/537.36 (KHTML, like Gecko) Chrome/100.0.4896.127 Safari/537.36" etag="mWE2PKqRDanP-jdxkMX1" version="17.4.6" type="github">
  <diagram id="aRSRvzfl5Pb7RmbvBqa9" name="Page-1">
    <mxGraphModel dx="868" dy="492" grid="1" gridSize="10" guides="1" tooltips="1" connect="1" arrows="1" fold="1" page="1" pageScale="1" pageWidth="827" pageHeight="1169" math="0" shadow="0">
      <root>
        <mxCell id="0" />
        <mxCell id="1" parent="0" />
        <mxCell id="LAl9oe5xLzTbfIYUFxLm-2" value="Contrata" style="shape=rhombus;perimeter=rhombusPerimeter;whiteSpace=wrap;html=1;align=center;gradientColor=#ffffff;" vertex="1" parent="1">
          <mxGeometry x="310" y="360" width="120" height="60" as="geometry" />
        </mxCell>
        <mxCell id="LAl9oe5xLzTbfIYUFxLm-3" value="DNI" style="ellipse;whiteSpace=wrap;html=1;align=center;fontStyle=5" vertex="1" parent="1">
          <mxGeometry x="100" y="560" width="100" height="40" as="geometry" />
        </mxCell>
        <mxCell id="LAl9oe5xLzTbfIYUFxLm-5" style="edgeStyle=orthogonalEdgeStyle;rounded=0;orthogonalLoop=1;jettySize=auto;html=1;entryX=0.5;entryY=0;entryDx=0;entryDy=0;endArrow=none;endFill=0;" edge="1" parent="1" source="LAl9oe5xLzTbfIYUFxLm-4" target="LAl9oe5xLzTbfIYUFxLm-3">
          <mxGeometry relative="1" as="geometry" />
        </mxCell>
        <mxCell id="LAl9oe5xLzTbfIYUFxLm-10" style="edgeStyle=orthogonalEdgeStyle;rounded=0;orthogonalLoop=1;jettySize=auto;html=1;entryX=0.5;entryY=0;entryDx=0;entryDy=0;endArrow=none;endFill=0;" edge="1" parent="1" source="LAl9oe5xLzTbfIYUFxLm-4" target="LAl9oe5xLzTbfIYUFxLm-8">
          <mxGeometry relative="1" as="geometry" />
        </mxCell>
        <mxCell id="LAl9oe5xLzTbfIYUFxLm-13" style="edgeStyle=orthogonalEdgeStyle;rounded=0;orthogonalLoop=1;jettySize=auto;html=1;entryX=0.5;entryY=0;entryDx=0;entryDy=0;endArrow=none;endFill=0;" edge="1" parent="1" source="LAl9oe5xLzTbfIYUFxLm-4" target="LAl9oe5xLzTbfIYUFxLm-7">
          <mxGeometry relative="1" as="geometry" />
        </mxCell>
        <mxCell id="LAl9oe5xLzTbfIYUFxLm-14" style="edgeStyle=orthogonalEdgeStyle;rounded=0;orthogonalLoop=1;jettySize=auto;html=1;entryX=0.5;entryY=0;entryDx=0;entryDy=0;endArrow=none;endFill=0;" edge="1" parent="1" source="LAl9oe5xLzTbfIYUFxLm-4" target="LAl9oe5xLzTbfIYUFxLm-9">
          <mxGeometry relative="1" as="geometry" />
        </mxCell>
        <mxCell id="LAl9oe5xLzTbfIYUFxLm-15" style="edgeStyle=orthogonalEdgeStyle;rounded=0;orthogonalLoop=1;jettySize=auto;html=1;entryX=0.5;entryY=0;entryDx=0;entryDy=0;endArrow=none;endFill=0;" edge="1" parent="1" source="LAl9oe5xLzTbfIYUFxLm-4" target="LAl9oe5xLzTbfIYUFxLm-6">
          <mxGeometry relative="1" as="geometry" />
        </mxCell>
        <mxCell id="LAl9oe5xLzTbfIYUFxLm-4" value="Empleado" style="whiteSpace=wrap;html=1;align=center;" vertex="1" parent="1">
          <mxGeometry x="320" y="450" width="100" height="40" as="geometry" />
        </mxCell>
        <mxCell id="LAl9oe5xLzTbfIYUFxLm-6" value="Nombre" style="ellipse;whiteSpace=wrap;html=1;align=center;fontStyle=1" vertex="1" parent="1">
          <mxGeometry x="210" y="560" width="100" height="40" as="geometry" />
        </mxCell>
        <mxCell id="LAl9oe5xLzTbfIYUFxLm-7" value="Puesto" style="ellipse;whiteSpace=wrap;html=1;align=center;fontStyle=1" vertex="1" parent="1">
          <mxGeometry x="430" y="560" width="100" height="40" as="geometry" />
        </mxCell>
        <mxCell id="LAl9oe5xLzTbfIYUFxLm-8" value="Apellido" style="ellipse;whiteSpace=wrap;html=1;align=center;fontStyle=1" vertex="1" parent="1">
          <mxGeometry x="320" y="560" width="100" height="40" as="geometry" />
        </mxCell>
        <mxCell id="LAl9oe5xLzTbfIYUFxLm-9" value="Salario" style="ellipse;whiteSpace=wrap;html=1;align=center;fontStyle=1" vertex="1" parent="1">
          <mxGeometry x="540" y="560" width="100" height="40" as="geometry" />
        </mxCell>
        <mxCell id="LAl9oe5xLzTbfIYUFxLm-22" style="edgeStyle=orthogonalEdgeStyle;rounded=0;orthogonalLoop=1;jettySize=auto;html=1;entryX=0.5;entryY=1;entryDx=0;entryDy=0;endArrow=none;endFill=0;" edge="1" parent="1" source="LAl9oe5xLzTbfIYUFxLm-16" target="LAl9oe5xLzTbfIYUFxLm-17">
          <mxGeometry relative="1" as="geometry" />
        </mxCell>
        <mxCell id="LAl9oe5xLzTbfIYUFxLm-23" style="edgeStyle=orthogonalEdgeStyle;rounded=0;orthogonalLoop=1;jettySize=auto;html=1;entryX=0.5;entryY=1;entryDx=0;entryDy=0;endArrow=none;endFill=0;" edge="1" parent="1" source="LAl9oe5xLzTbfIYUFxLm-16" target="LAl9oe5xLzTbfIYUFxLm-18">
          <mxGeometry relative="1" as="geometry" />
        </mxCell>
        <mxCell id="LAl9oe5xLzTbfIYUFxLm-24" style="edgeStyle=orthogonalEdgeStyle;rounded=0;orthogonalLoop=1;jettySize=auto;html=1;entryX=0.5;entryY=1;entryDx=0;entryDy=0;endArrow=none;endFill=0;" edge="1" parent="1" source="LAl9oe5xLzTbfIYUFxLm-16" target="LAl9oe5xLzTbfIYUFxLm-19">
          <mxGeometry relative="1" as="geometry" />
        </mxCell>
        <mxCell id="LAl9oe5xLzTbfIYUFxLm-25" style="edgeStyle=orthogonalEdgeStyle;rounded=0;orthogonalLoop=1;jettySize=auto;html=1;entryX=0.5;entryY=1;entryDx=0;entryDy=0;endArrow=none;endFill=0;" edge="1" parent="1" source="LAl9oe5xLzTbfIYUFxLm-16" target="LAl9oe5xLzTbfIYUFxLm-20">
          <mxGeometry relative="1" as="geometry" />
        </mxCell>
        <mxCell id="LAl9oe5xLzTbfIYUFxLm-26" style="edgeStyle=orthogonalEdgeStyle;rounded=0;orthogonalLoop=1;jettySize=auto;html=1;entryX=0.5;entryY=1;entryDx=0;entryDy=0;endArrow=none;endFill=0;" edge="1" parent="1" source="LAl9oe5xLzTbfIYUFxLm-16" target="LAl9oe5xLzTbfIYUFxLm-21">
          <mxGeometry relative="1" as="geometry" />
        </mxCell>
        <mxCell id="LAl9oe5xLzTbfIYUFxLm-16" value="Empresa" style="whiteSpace=wrap;html=1;align=center;" vertex="1" parent="1">
          <mxGeometry x="320" y="300" width="100" height="40" as="geometry" />
        </mxCell>
        <mxCell id="LAl9oe5xLzTbfIYUFxLm-17" value="Área" style="ellipse;whiteSpace=wrap;html=1;align=center;fontStyle=1" vertex="1" parent="1">
          <mxGeometry x="540" y="200" width="100" height="40" as="geometry" />
        </mxCell>
        <mxCell id="LAl9oe5xLzTbfIYUFxLm-18" value="Ciudad" style="ellipse;whiteSpace=wrap;html=1;align=center;fontStyle=1" vertex="1" parent="1">
          <mxGeometry x="430" y="200" width="100" height="40" as="geometry" />
        </mxCell>
        <mxCell id="LAl9oe5xLzTbfIYUFxLm-19" value="Domicilio Fisc." style="ellipse;whiteSpace=wrap;html=1;align=center;fontStyle=1" vertex="1" parent="1">
          <mxGeometry x="320" y="200" width="100" height="40" as="geometry" />
        </mxCell>
        <mxCell id="LAl9oe5xLzTbfIYUFxLm-20" value="Razón Social" style="ellipse;whiteSpace=wrap;html=1;align=center;fontStyle=1" vertex="1" parent="1">
          <mxGeometry x="210" y="200" width="100" height="40" as="geometry" />
        </mxCell>
        <mxCell id="LAl9oe5xLzTbfIYUFxLm-21" value="CUIT" style="ellipse;whiteSpace=wrap;html=1;align=center;fontStyle=5" vertex="1" parent="1">
          <mxGeometry x="100" y="200" width="100" height="40" as="geometry" />
        </mxCell>
        <mxCell id="LAl9oe5xLzTbfIYUFxLm-27" value="1" style="text;html=1;strokeColor=none;fillColor=none;align=center;verticalAlign=middle;whiteSpace=wrap;rounded=0;" vertex="1" parent="1">
          <mxGeometry x="370" y="340" width="60" height="30" as="geometry" />
        </mxCell>
        <mxCell id="LAl9oe5xLzTbfIYUFxLm-28" value="n" style="text;html=1;strokeColor=none;fillColor=none;align=center;verticalAlign=middle;whiteSpace=wrap;rounded=0;" vertex="1" parent="1">
          <mxGeometry x="370" y="420" width="60" height="30" as="geometry" />
        </mxCell>
      </root>
    </mxGraphModel>
  </diagram>
</mxfile>
